<?xml version="1.0" encoding="utf-8"?>
<!-- Generator: Adobe Illustrator 23.0.0, SVG Export Plug-In . SVG Version: 6.00 Build 0)  -->
<svg version="1.1" id="compass" xmlns="http://www.w3.org/2000/svg" xmlns:xlink="http://www.w3.org/1999/xlink" x="0px" y="0px"
	 width="80px" height="80px" viewBox="0 0 80 80" style="enable-background:new 0 0 80 80;" xml:space="preserve">
<style type="text/css">
	.st0{fill-rule:evenodd;clip-rule:evenodd;fill:#EEDFC6;}
</style>
<polygon class="st0" points="34.2,16.7 37.4,16.7 37.4,10.8 41.6,16.7 44.9,16.7 44.9,5.8 41.6,5.8 41.6,11.9 37.4,5.8 34.2,5.8 "/>
<path class="st0" d="M24.8,33.9c8.2-8,21.7-8,29.9,0s8.2,21,0,29s-21.7,8-29.9,0C16.5,54.9,16.5,41.8,24.8,33.9 M19.8,29
	c-5.5,5.3-8.3,12.3-8.3,19.3s2.8,14,8.3,19.3s12.7,8,19.9,8l0,0c7.2,0,14.4-2.7,19.9-8s8.3-12.3,8.3-19.3l0,0c0-7-2.8-14-8.3-19.3
	C48.7,18.3,30.8,18.3,19.8,29z"/>
<path class="st0" d="M39.7,43.2c2,0,3.7,1.1,4.6,2.7L39.7,29l-4.4,16.7C36.2,44.3,37.8,43.2,39.7,43.2z"/>
<path class="st0" d="M39.7,53.5c-1.9,0-3.5-1-4.5-2.5l4.5,16.8l4.6-16.9C43.4,52.4,41.7,53.5,39.7,53.5z"/>
</svg>
